<mxfile host="app.diagrams.net" agent="Mozilla/5.0 (Windows NT 10.0; Win64; x64) AppleWebKit/537.36 (KHTML, like Gecko) Chrome/123.0.0.0 Safari/537.36 OPR/109.0.0.0" version="24.7.6">
  <diagram name="Страница — 1" id="_SKdRh1ridLEpidDvCyz">
    <mxGraphModel dx="1161" dy="607" grid="1" gridSize="10" guides="1" tooltips="1" connect="1" arrows="1" fold="1" page="1" pageScale="1" pageWidth="1169" pageHeight="827" background="#0e71b4" math="0" shadow="0">
      <root>
        <mxCell id="0" />
        <mxCell id="1" parent="0" />
        <mxCell id="YOvDV3y9TgNX6leJfm7o-3" value="" style="rounded=1;whiteSpace=wrap;html=1;" vertex="1" parent="1">
          <mxGeometry x="120" y="200" width="140" height="340" as="geometry" />
        </mxCell>
        <mxCell id="YOvDV3y9TgNX6leJfm7o-4" value="Баланс" style="text;html=1;align=center;verticalAlign=middle;whiteSpace=wrap;rounded=0;" vertex="1" parent="1">
          <mxGeometry x="140" y="230" width="60" height="30" as="geometry" />
        </mxCell>
        <mxCell id="YOvDV3y9TgNX6leJfm7o-7" value="Перевод средств" style="rounded=1;whiteSpace=wrap;html=1;fillColor=#eeeeee;strokeColor=#36393d;" vertex="1" parent="1">
          <mxGeometry x="125" y="290" width="130" height="40" as="geometry" />
        </mxCell>
        <mxCell id="YOvDV3y9TgNX6leJfm7o-8" value="Законы" style="rounded=1;whiteSpace=wrap;html=1;fillColor=#eeeeee;strokeColor=#36393d;" vertex="1" parent="1">
          <mxGeometry x="125" y="340" width="130" height="40" as="geometry" />
        </mxCell>
        <mxCell id="YOvDV3y9TgNX6leJfm7o-9" value="Контракты" style="rounded=1;whiteSpace=wrap;html=1;fillColor=#eeeeee;strokeColor=#36393d;" vertex="1" parent="1">
          <mxGeometry x="125" y="390" width="130" height="40" as="geometry" />
        </mxCell>
        <mxCell id="YOvDV3y9TgNX6leJfm7o-10" value="Инвестиции" style="rounded=1;whiteSpace=wrap;html=1;fillColor=#eeeeee;strokeColor=#36393d;" vertex="1" parent="1">
          <mxGeometry x="125" y="440" width="130" height="40" as="geometry" />
        </mxCell>
        <mxCell id="YOvDV3y9TgNX6leJfm7o-11" value="" style="rounded=1;whiteSpace=wrap;html=1;" vertex="1" parent="1">
          <mxGeometry x="470" y="214" width="140" height="200" as="geometry" />
        </mxCell>
        <mxCell id="YOvDV3y9TgNX6leJfm7o-12" value="Выберете получателя" style="text;html=1;align=center;verticalAlign=middle;whiteSpace=wrap;rounded=0;" vertex="1" parent="1">
          <mxGeometry x="470" y="230" width="140" height="30" as="geometry" />
        </mxCell>
        <mxCell id="YOvDV3y9TgNX6leJfm7o-13" value="Залупко" style="rounded=1;whiteSpace=wrap;html=1;fillColor=#eeeeee;strokeColor=#36393d;" vertex="1" parent="1">
          <mxGeometry x="475" y="280" width="130" height="40" as="geometry" />
        </mxCell>
        <mxCell id="YOvDV3y9TgNX6leJfm7o-14" value="Залупенко" style="rounded=1;whiteSpace=wrap;html=1;fillColor=#eeeeee;strokeColor=#36393d;" vertex="1" parent="1">
          <mxGeometry x="475" y="330" width="130" height="40" as="geometry" />
        </mxCell>
      </root>
    </mxGraphModel>
  </diagram>
</mxfile>
